<svg width="800" height="400" viewBox="0 0 800 400" xmlns="http://www.w3.org/2000/svg"><mask id="satori_om-id"><rect x="0" y="0" width="800" height="400" fill="#fff"/></mask><rect x="0" y="0" width="800" height="400" fill="white"/><mask id="satori_om-id-0"><rect x="42" y="42" width="150" height="24" fill="#fff"/></mask><mask id="satori_om-id-0-0"><rect x="42" y="42" width="24" height="24" fill="#fff"/></mask><rect x="42" y="42" width="24" height="24" fill="#dd8500"/><mask id="satori_om-id-0-1"><rect x="74" y="42" width="118" height="24" fill="#fff"/></mask><path fill="black" d="M83.0 59.3L80.8 56.3L83.4 56.3L84.7 58.0L86.0 59.5L88.4 62.6L85.5 62.6L83.9 60.5L83.0 59.3ZM88.6 54.1L88.6 54.1Q88.6 56.5 87.7 58.2Q86.8 59.8 85.3 60.7Q83.7 61.6 81.8 61.6L81.8 61.6Q79.9 61.6 78.3 60.7Q76.8 59.8 75.9 58.1Q75.0 56.5 75.0 54.1L75.0 54.1Q75.0 51.7 75.9 50.1Q76.8 48.4 78.3 47.5Q79.9 46.6 81.8 46.6L81.8 46.6Q83.7 46.6 85.3 47.5Q86.8 48.4 87.7 50.1Q88.6 51.7 88.6 54.1ZM85.5 54.1L85.5 54.1Q85.5 52.6 85.1 51.5Q84.6 50.4 83.8 49.9Q82.9 49.4 81.8 49.4L81.8 49.4Q80.7 49.4 79.9 49.9Q79.0 50.4 78.6 51.5Q78.1 52.6 78.1 54.1L78.1 54.1Q78.1 55.6 78.6 56.7Q79.0 57.8 79.9 58.3Q80.7 58.9 81.8 58.9L81.8 58.9Q82.9 58.9 83.8 58.3Q84.6 57.8 85.1 56.7Q85.5 55.6 85.5 54.1ZM93.7 61.6L93.7 61.6Q92.6 61.6 91.8 61.2Q91.0 60.8 90.5 60.1Q90.0 59.4 90.0 58.3L90.0 58.3Q90.0 57.4 90.4 56.8Q90.7 56.2 91.3 55.8Q91.8 55.4 92.6 55.2Q93.3 55.0 94.1 55.0L94.1 55.0Q95.1 54.9 95.7 54.8Q96.2 54.7 96.5 54.5Q96.8 54.3 96.8 54.0L96.8 54.0L96.8 53.9Q96.8 53.3 96.3 52.9Q95.9 52.5 95.2 52.5L95.2 52.5Q94.3 52.5 93.9 52.9Q93.4 53.3 93.2 53.8L93.2 53.8L90.4 53.6Q90.6 52.6 91.3 51.8Q91.9 51.1 92.9 50.7Q93.9 50.3 95.2 50.3L95.2 50.3Q96.1 50.3 96.9 50.5Q97.7 50.8 98.4 51.2Q99.0 51.6 99.4 52.3Q99.8 53.0 99.8 54.0L99.8 54.0L99.8 61.4L96.9 61.4L96.9 59.9L96.8 59.9Q96.6 60.4 96.1 60.8Q95.7 61.1 95.1 61.4Q94.5 61.6 93.7 61.6ZM94.5 59.5L94.5 59.5Q95.2 59.5 95.7 59.2Q96.2 59.0 96.5 58.5Q96.8 58.1 96.8 57.5L96.8 57.5L96.8 56.3Q96.6 56.4 96.4 56.5Q96.2 56.6 95.9 56.6Q95.5 56.7 95.2 56.7Q94.9 56.8 94.7 56.8L94.7 56.8Q94.2 56.9 93.8 57.1Q93.4 57.2 93.1 57.5Q92.9 57.8 92.9 58.2L92.9 58.2Q92.9 58.8 93.4 59.2Q93.8 59.5 94.5 59.5ZM104.9 61.4L101.8 61.4L101.8 50.5L104.7 50.5L104.7 52.4L104.8 52.4Q105.2 51.4 106.0 50.9Q106.8 50.3 107.9 50.3L107.9 50.3Q109.0 50.3 109.8 50.9Q110.6 51.4 110.8 52.4L110.8 52.4L111.0 52.4Q111.3 51.5 112.2 50.9Q113.0 50.3 114.2 50.3L114.2 50.3Q115.8 50.3 116.7 51.3Q117.7 52.3 117.7 54.0L117.7 54.0L117.7 61.4L114.7 61.4L114.7 54.6Q114.7 53.7 114.2 53.3Q113.7 52.8 113.0 52.8L113.0 52.8Q112.1 52.8 111.7 53.3Q111.2 53.9 111.2 54.7L111.2 54.7L111.2 61.4L108.3 61.4L108.3 54.6Q108.3 53.8 107.8 53.3Q107.4 52.8 106.6 52.8L106.6 52.8Q106.1 52.8 105.7 53.1Q105.3 53.3 105.1 53.8Q104.9 54.2 104.9 54.8L104.9 54.8L104.9 61.4ZM124.7 61.6L124.7 61.6Q123.0 61.6 121.8 60.9Q120.6 60.2 120.0 58.9Q119.3 57.6 119.3 56.0L119.3 56.0Q119.3 54.3 120.0 53.0Q120.6 51.7 121.8 51.0Q123.0 50.3 124.7 50.3L124.7 50.3Q126.3 50.3 127.5 51.0Q128.7 51.7 129.4 53.0Q130.0 54.3 130.0 56.0L130.0 56.0Q130.0 57.6 129.4 58.9Q128.7 60.2 127.5 60.9Q126.3 61.6 124.7 61.6ZM124.7 59.2L124.7 59.2Q125.4 59.2 125.9 58.8Q126.4 58.4 126.7 57.6Q127.0 56.9 127.0 55.9L127.0 55.9Q127.0 55.0 126.7 54.2Q126.4 53.5 125.9 53.1Q125.4 52.6 124.7 52.6L124.7 52.6Q123.9 52.6 123.4 53.1Q122.9 53.5 122.6 54.2Q122.4 55.0 122.4 55.9L122.4 55.9Q122.4 56.9 122.6 57.6Q122.9 58.4 123.4 58.8Q123.9 59.2 124.7 59.2ZM138.7 56.7L138.7 56.7L138.7 50.5L141.7 50.5L141.7 61.4L138.8 61.4L138.8 59.4L138.7 59.4Q138.3 60.4 137.5 60.9Q136.6 61.5 135.4 61.5L135.4 61.5Q134.3 61.5 133.5 61.0Q132.6 60.5 132.2 59.6Q131.7 58.7 131.7 57.4L131.7 57.4L131.7 50.5L134.7 50.5L134.7 56.9Q134.7 57.8 135.2 58.4Q135.8 59.0 136.6 59.0L136.6 59.0Q137.2 59.0 137.6 58.7Q138.1 58.5 138.4 58.0Q138.7 57.5 138.7 56.7ZM152.9 53.6L152.9 53.6L150.1 53.7Q150.0 53.4 149.8 53.1Q149.6 52.8 149.2 52.6Q148.8 52.5 148.3 52.5L148.3 52.5Q147.6 52.5 147.1 52.8Q146.6 53.1 146.6 53.5L146.6 53.5Q146.6 53.9 146.9 54.2Q147.3 54.5 148.0 54.6L148.0 54.6L150.0 55.0Q151.6 55.4 152.4 56.1Q153.1 56.8 153.1 58.0L153.1 58.0Q153.1 59.1 152.5 59.9Q151.9 60.7 150.8 61.1Q149.7 61.6 148.3 61.6L148.3 61.6Q146.1 61.6 144.8 60.7Q143.6 59.8 143.3 58.2L143.3 58.2L146.3 58.1Q146.4 58.7 147.0 59.1Q147.5 59.4 148.3 59.4L148.3 59.4Q149.1 59.4 149.6 59.1Q150.1 58.8 150.1 58.3L150.1 58.3Q150.1 57.9 149.7 57.6Q149.4 57.4 148.7 57.2L148.7 57.2L146.8 56.8Q145.2 56.5 144.4 55.7Q143.6 54.9 143.6 53.7L143.6 53.7Q143.6 52.7 144.2 51.9Q144.8 51.1 145.8 50.7Q146.8 50.3 148.2 50.3L148.2 50.3Q150.3 50.3 151.5 51.2Q152.7 52.1 152.9 53.6ZM156.5 61.6L156.5 61.6Q155.8 61.6 155.3 61.1Q154.8 60.6 154.8 59.9L154.8 59.9Q154.8 59.2 155.3 58.7Q155.8 58.2 156.5 58.2L156.5 58.2Q157.2 58.2 157.7 58.7Q158.2 59.2 158.2 59.9L158.2 59.9Q158.2 60.3 158.0 60.7Q157.7 61.1 157.3 61.3Q157.0 61.6 156.5 61.6ZM165.3 61.6L165.3 61.6Q163.6 61.6 162.4 60.9Q161.2 60.2 160.6 58.9Q159.9 57.6 159.9 56.0L159.9 56.0Q159.9 54.3 160.6 53.0Q161.2 51.7 162.4 51.0Q163.6 50.3 165.3 50.3L165.3 50.3Q166.9 50.3 168.1 51.0Q169.4 51.7 170.0 53.0Q170.7 54.3 170.7 56.0L170.7 56.0Q170.7 57.6 170.0 58.9Q169.4 60.2 168.1 60.9Q166.9 61.6 165.3 61.6ZM165.3 59.2L165.3 59.2Q166.1 59.2 166.6 58.8Q167.1 58.4 167.3 57.6Q167.6 56.9 167.6 55.9L167.6 55.9Q167.6 55.0 167.3 54.2Q167.1 53.5 166.6 53.1Q166.1 52.6 165.3 52.6L165.3 52.6Q164.5 52.6 164.0 53.1Q163.5 53.5 163.3 54.2Q163.0 55.0 163.0 55.9L163.0 55.9Q163.0 56.9 163.3 57.6Q163.5 58.4 164.0 58.8Q164.5 59.2 165.3 59.2ZM175.3 61.4L172.3 61.4L172.3 50.5L175.2 50.5L175.2 52.4L175.4 52.4Q175.7 51.4 176.4 50.8Q177.1 50.3 178.0 50.3L178.0 50.3Q178.2 50.3 178.5 50.3Q178.7 50.4 178.9 50.4L178.9 50.4L178.9 53.1Q178.7 53.0 178.3 53.0Q178.0 52.9 177.7 52.9L177.7 52.9Q177.0 52.9 176.5 53.2Q175.9 53.5 175.6 54.0Q175.3 54.5 175.3 55.2L175.3 55.2L175.3 61.4ZM184.6 65.7L184.6 65.7Q183.1 65.7 182.1 65.3Q181.0 64.9 180.4 64.2Q179.8 63.5 179.6 62.7L179.6 62.7L182.4 62.3Q182.5 62.6 182.8 62.9Q183.1 63.2 183.5 63.3Q184.0 63.5 184.6 63.5L184.6 63.5Q185.6 63.5 186.3 63.0Q186.9 62.6 186.9 61.4L186.9 61.4L186.9 59.4L186.8 59.4Q186.6 59.9 186.2 60.3Q185.8 60.7 185.2 61.0Q184.5 61.2 183.7 61.2L183.7 61.2Q182.4 61.2 181.4 60.6Q180.4 60.1 179.8 58.9Q179.3 57.7 179.3 55.9L179.3 55.9Q179.3 54.0 179.9 52.8Q180.5 51.6 181.5 50.9Q182.5 50.3 183.7 50.3L183.7 50.3Q184.6 50.3 185.2 50.6Q185.8 50.9 186.2 51.4Q186.6 51.9 186.8 52.3L186.8 52.3L186.9 52.3L186.9 50.5L189.9 50.5L189.9 61.5Q189.9 62.9 189.2 63.8Q188.5 64.7 187.3 65.2Q186.1 65.7 184.6 65.7ZM184.6 58.9L184.6 58.9Q185.4 58.9 185.9 58.6Q186.4 58.2 186.7 57.5Q186.9 56.8 186.9 55.9L186.9 55.9Q186.9 54.9 186.7 54.2Q186.4 53.5 185.9 53.1Q185.4 52.7 184.6 52.7L184.6 52.7Q183.9 52.7 183.4 53.1Q182.9 53.5 182.6 54.2Q182.3 55.0 182.3 55.9L182.3 55.9Q182.3 56.8 182.6 57.5Q182.9 58.2 183.4 58.6Q183.9 58.9 184.6 58.9Z "/><mask id="satori_om-id-1"><rect x="125" y="124" width="550" height="152" fill="#fff"/></mask><rect x="125" y="124" width="550" height="152" fill="#dd8500"/><path fill="white" d="M263.3 186.5L263.3 157.5L270.9 157.5L278.9 177L279.2 177L287.2 157.5L294.8 157.5L294.8 186.5L288.8 186.5L288.8 167.6L288.6 167.6L281.1 186.4L277.0 186.4L269.5 167.5L269.2 167.5L269.2 186.5L263.3 186.5ZM305.6 187.0L305.6 187.0Q303.6 187.0 301.9 186.2Q300.3 185.5 299.3 184.1Q298.4 182.6 298.4 180.5L298.4 180.5Q298.4 178.6 299.1 177.4Q299.7 176.2 300.9 175.4Q302.0 174.7 303.5 174.3Q305.0 173.9 306.6 173.7L306.6 173.7Q308.5 173.5 309.7 173.4Q310.8 173.2 311.4 172.8Q311.9 172.5 311.9 171.8L311.9 171.8L311.9 171.7Q311.9 170.3 311.0 169.6Q310.2 168.9 308.6 168.9L308.6 168.9Q307.0 168.9 306.0 169.6Q305.1 170.3 304.8 171.4L304.8 171.4L299.2 170.9Q299.6 168.9 300.8 167.5Q302.1 166.0 304.1 165.2Q306.1 164.4 308.7 164.4L308.7 164.4Q310.5 164.4 312.2 164.9Q313.8 165.3 315.1 166.2Q316.4 167.1 317.2 168.5Q317.9 169.9 317.9 171.8L317.9 171.8L317.9 186.5L312.2 186.5L312.2 183.5L312.0 183.5Q311.5 184.5 310.6 185.3Q309.7 186.1 308.5 186.5Q307.3 187.0 305.6 187.0ZM307.4 182.8L307.4 182.8Q308.7 182.8 309.7 182.2Q310.8 181.7 311.3 180.8Q311.9 179.9 311.9 178.7L311.9 178.7L311.9 176.4Q311.6 176.6 311.1 176.8Q310.7 176.9 310.0 177.0Q309.4 177.2 308.8 177.2Q308.2 177.3 307.7 177.4L307.7 177.4Q306.7 177.6 305.9 177.9Q305.1 178.3 304.6 178.8Q304.2 179.4 304.2 180.3L304.2 180.3Q304.2 181.5 305.1 182.1Q306.0 182.8 307.4 182.8ZM331.8 175.7L327.8 180.3L327.8 173.0L328.7 173.0L335.7 164.7L342.6 164.7L333.2 175.7L331.8 175.7ZM328.4 186.5L322.3 186.5L322.3 157.5L328.4 157.5L328.4 186.5ZM343.0 186.5L335.9 186.5L329.5 177.0L333.6 172.8L343.0 186.5ZM351.3 186.5L345.3 186.5L345.3 164.7L351.3 164.7L351.3 186.5ZM348.3 161.9L348.3 161.9Q347.0 161.9 346.0 161.0Q345.0 160.1 345.0 158.8L345.0 158.8Q345.0 157.6 346.0 156.7Q347.0 155.8 348.3 155.8L348.3 155.8Q349.6 155.8 350.6 156.7Q351.6 157.6 351.6 158.8L351.6 158.8Q351.6 160.1 350.6 161.0Q349.6 161.9 348.3 161.9ZM361.9 173.9L361.9 173.9L361.9 186.5L355.8 186.5L355.8 164.7L361.6 164.7L361.6 168.6L361.8 168.6Q362.6 166.7 364.3 165.6Q366.0 164.4 368.4 164.4L368.4 164.4Q370.7 164.4 372.4 165.4Q374.1 166.4 375.0 168.3Q375.9 170.1 375.9 172.7L375.9 172.7L375.9 186.5L369.9 186.5L369.9 173.7Q369.9 171.7 368.9 170.6Q367.8 169.5 366.0 169.5L366.0 169.5Q364.8 169.5 363.9 170.0Q362.9 170.5 362.4 171.5Q361.9 172.5 361.9 173.9ZM390.2 195.2L390.2 195.2Q387.3 195.2 385.2 194.4Q383.1 193.6 381.8 192.2Q380.6 190.8 380.2 189.1L380.2 189.1L385.8 188.3Q386.1 189.0 386.6 189.6Q387.2 190.1 388.1 190.5Q389.0 190.8 390.3 190.8L390.3 190.8Q392.3 190.8 393.6 189.9Q394.9 188.9 394.9 186.7L394.9 186.7L394.9 182.7L394.6 182.7Q394.2 183.6 393.4 184.4Q392.6 185.2 391.4 185.7Q390.1 186.2 388.4 186.2L388.4 186.2Q386.0 186.2 383.9 185.1Q381.9 183.9 380.7 181.6Q379.6 179.2 379.6 175.6L379.6 175.6Q379.6 171.9 380.8 169.4Q382.0 166.9 384.0 165.7Q386.0 164.4 388.4 164.4L388.4 164.4Q390.2 164.4 391.5 165.1Q392.7 165.7 393.5 166.6Q394.2 167.5 394.6 168.4L394.6 168.4L394.9 168.4L394.9 164.7L400.9 164.7L400.9 186.8Q400.9 189.5 399.5 191.4Q398.1 193.3 395.7 194.2Q393.3 195.2 390.2 195.2ZM390.3 181.7L390.3 181.7Q391.8 181.7 392.8 181.0Q393.8 180.2 394.4 178.9Q394.9 177.5 394.9 175.6L394.9 175.6Q394.9 173.6 394.4 172.2Q393.8 170.8 392.8 170.0Q391.8 169.3 390.3 169.3L390.3 169.3Q388.8 169.3 387.8 170.1Q386.8 170.9 386.3 172.3Q385.7 173.7 385.7 175.6L385.7 175.6Q385.7 177.5 386.3 178.8Q386.8 180.2 387.8 180.9Q388.8 181.7 390.3 181.7Z M426.8 164.1L419.5 186.5L412.9 186.5L422.9 157.5L430.8 157.5L440.9 186.5L434.3 186.5L427.0 164.1L426.8 164.1ZM419.1 179.9L419.1 175.1L434.6 175.1L434.6 179.9L419.1 179.9ZM450.0 186.5L443.9 186.5L443.9 164.7L449.8 164.7L449.8 168.5L450.0 168.5Q450.6 166.5 452.0 165.5Q453.4 164.4 455.3 164.4L455.3 164.4Q455.7 164.4 456.2 164.5Q456.8 164.5 457.2 164.6L457.2 164.6L457.2 170.0Q456.7 169.9 456.0 169.8Q455.2 169.7 454.6 169.7L454.6 169.7Q453.3 169.7 452.2 170.2Q451.2 170.8 450.6 171.8Q450.0 172.9 450.0 174.2L450.0 174.2L450.0 186.5ZM465.6 187.0L465.6 187.0Q463.5 187.0 461.8 186.2Q460.2 185.5 459.3 184.1Q458.3 182.6 458.3 180.5L458.3 180.5Q458.3 178.6 459.0 177.4Q459.7 176.2 460.8 175.4Q462.0 174.7 463.4 174.3Q464.9 173.9 466.5 173.7L466.5 173.7Q468.4 173.5 469.6 173.4Q470.8 173.2 471.3 172.8Q471.8 172.5 471.8 171.8L471.8 171.8L471.8 171.7Q471.8 170.3 471.0 169.6Q470.1 168.9 468.6 168.9L468.6 168.9Q466.9 168.9 466.0 169.6Q465.0 170.3 464.7 171.4L464.7 171.4L459.1 170.9Q459.5 168.9 460.8 167.5Q462.0 166.0 464.0 165.2Q466.0 164.4 468.6 164.4L468.6 164.4Q470.4 164.4 472.1 164.9Q473.8 165.3 475.1 166.2Q476.4 167.1 477.1 168.5Q477.9 169.9 477.9 171.8L477.9 171.8L477.9 186.5L472.1 186.5L472.1 183.5L471.9 183.5Q471.4 184.5 470.5 185.3Q469.7 186.1 468.4 186.5Q467.2 187.0 465.6 187.0ZM467.3 182.8L467.3 182.8Q468.6 182.8 469.7 182.2Q470.7 181.7 471.3 180.8Q471.8 179.9 471.8 178.7L471.8 178.7L471.8 176.4Q471.6 176.6 471.1 176.8Q470.6 176.9 470.0 177.0Q469.4 177.2 468.8 177.2Q468.1 177.3 467.6 177.4L467.6 177.4Q466.6 177.6 465.8 177.9Q465.0 178.3 464.5 178.8Q464.1 179.4 464.1 180.3L464.1 180.3Q464.1 181.5 465.0 182.1Q465.9 182.8 467.3 182.8ZM488.3 186.5L482.4 186.5L482.4 157.5L488.4 157.5L488.4 168.4L488.6 168.4Q489.0 167.5 489.7 166.6Q490.5 165.7 491.7 165.1Q493.0 164.4 494.8 164.4L494.8 164.4Q497.2 164.4 499.2 165.7Q501.2 166.9 502.4 169.4Q503.6 171.9 503.6 175.7L503.6 175.7Q503.6 179.3 502.5 181.8Q501.3 184.3 499.3 185.6Q497.3 186.9 494.8 186.9L494.8 186.9Q493.0 186.9 491.8 186.3Q490.6 185.7 489.8 184.8Q489.0 184.0 488.6 183.1L488.6 183.1L488.3 183.1L488.3 186.5ZM488.3 175.6L488.3 175.6Q488.3 177.6 488.8 179.0Q489.4 180.5 490.4 181.3Q491.4 182.1 492.9 182.1L492.9 182.1Q494.3 182.1 495.4 181.3Q496.4 180.5 496.9 179.0Q497.5 177.5 497.5 175.6L497.5 175.6Q497.5 173.7 496.9 172.3Q496.4 170.9 495.4 170.1Q494.4 169.3 492.9 169.3L492.9 169.3Q491.4 169.3 490.4 170.0Q489.4 170.8 488.8 172.3Q488.3 173.7 488.3 175.6ZM513.4 186.5L507.3 186.5L507.3 164.7L513.4 164.7L513.4 186.5ZM510.4 161.9L510.4 161.9Q509.0 161.9 508.1 161.0Q507.1 160.1 507.1 158.8L507.1 158.8Q507.1 157.6 508.1 156.7Q509.0 155.8 510.4 155.8L510.4 155.8Q511.7 155.8 512.7 156.7Q513.6 157.6 513.6 158.8L513.6 158.8Q513.6 160.1 512.7 161.0Q511.7 161.9 510.4 161.9ZM527.7 187.0L527.7 187.0Q524.4 187.0 522.0 185.5Q519.6 184.1 518.3 181.6Q517.0 179.0 517.0 175.7L517.0 175.7Q517.0 172.4 518.3 169.8Q519.6 167.3 522.0 165.9Q524.4 164.4 527.7 164.4L527.7 164.4Q530.6 164.4 532.7 165.5Q534.9 166.5 536.1 168.4Q537.4 170.3 537.5 172.8L537.5 172.8L531.8 172.8Q531.5 171.2 530.5 170.2Q529.5 169.2 527.8 169.2L527.8 169.2Q526.4 169.2 525.4 169.9Q524.3 170.7 523.7 172.1Q523.2 173.6 523.2 175.6L523.2 175.6Q523.2 177.7 523.7 179.2Q524.3 180.7 525.4 181.4Q526.4 182.2 527.8 182.2L527.8 182.2Q528.9 182.2 529.7 181.8Q530.5 181.3 531.1 180.5Q531.6 179.7 531.8 178.5L531.8 178.5L537.5 178.5Q537.4 181.0 536.1 182.9Q534.9 184.8 532.8 185.9Q530.7 187.0 527.7 187.0Z M260.6 242.5L242.0 242.5L242.0 213.5L248.1 213.5L248.1 237.5L260.6 237.5L260.6 242.5ZM274.2 243.0L274.2 243.0Q270.8 243.0 268.4 241.6Q266.0 240.2 264.7 237.7Q263.4 235.2 263.4 231.7L263.4 231.7Q263.4 228.4 264.7 225.8Q266.0 223.3 268.4 221.9Q270.7 220.4 274.0 220.4L274.0 220.4Q276.1 220.4 278.0 221.1Q279.9 221.8 281.2 223.2Q282.6 224.6 283.4 226.7Q284.2 228.7 284.2 231.5L284.2 231.5L284.2 233.2L265.8 233.2L265.8 229.4L278.5 229.4Q278.5 228.1 277.9 227.1Q277.4 226.1 276.4 225.5Q275.4 225.0 274.1 225.0L274.1 225.0Q272.7 225.0 271.6 225.6Q270.6 226.2 270.0 227.3Q269.4 228.3 269.4 229.6L269.4 229.6L269.4 233.2Q269.4 234.8 270.0 236.0Q270.6 237.2 271.7 237.8Q272.8 238.5 274.3 238.5L274.3 238.5Q275.3 238.5 276.1 238.2Q277.0 237.9 277.6 237.3Q278.2 236.8 278.5 235.9L278.5 235.9L284.1 236.3Q283.7 238.3 282.3 239.8Q281.0 241.3 279.0 242.1Q276.9 243.0 274.2 243.0ZM294.1 243.0L294.1 243.0Q292.0 243.0 290.3 242.2Q288.7 241.5 287.8 240.1Q286.8 238.6 286.8 236.5L286.8 236.5Q286.8 234.6 287.5 233.4Q288.2 232.2 289.3 231.4Q290.5 230.7 291.9 230.3Q293.4 229.9 295.0 229.7L295.0 229.7Q296.9 229.5 298.1 229.4Q299.2 229.2 299.8 228.8Q300.3 228.5 300.3 227.8L300.3 227.8L300.3 227.7Q300.3 226.3 299.5 225.6Q298.6 224.9 297.1 224.9L297.1 224.9Q295.4 224.9 294.5 225.6Q293.5 226.3 293.2 227.4L293.2 227.4L287.6 226.9Q288.0 224.9 289.3 223.5Q290.5 222.0 292.5 221.2Q294.5 220.4 297.1 220.4L297.1 220.4Q298.9 220.4 300.6 220.9Q302.2 221.3 303.5 222.2Q304.8 223.1 305.6 224.5Q306.3 225.9 306.3 227.8L306.3 227.8L306.3 242.5L300.6 242.5L300.6 239.5L300.4 239.5Q299.9 240.5 299.0 241.3Q298.2 242.1 296.9 242.5Q295.7 243.0 294.1 243.0ZM295.8 238.8L295.8 238.8Q297.1 238.8 298.2 238.2Q299.2 237.7 299.8 236.8Q300.3 235.9 300.3 234.7L300.3 234.7L300.3 232.4Q300.1 232.6 299.6 232.8Q299.1 232.9 298.5 233.0Q297.9 233.2 297.2 233.2Q296.6 233.3 296.1 233.4L296.1 233.4Q295.1 233.6 294.3 233.9Q293.5 234.3 293.0 234.8Q292.6 235.4 292.6 236.3L292.6 236.3Q292.6 237.5 293.5 238.1Q294.4 238.8 295.8 238.8ZM316.8 242.5L310.7 242.5L310.7 220.7L316.6 220.7L316.6 224.5L316.8 224.5Q317.4 222.5 318.8 221.5Q320.2 220.4 322.1 220.4L322.1 220.4Q322.5 220.4 323.0 220.5Q323.6 220.5 324.0 220.6L324.0 220.6L324.0 226.0Q323.5 225.9 322.8 225.8Q322.0 225.7 321.4 225.7L321.4 225.7Q320.1 225.7 319.0 226.2Q318.0 226.8 317.4 227.8Q316.8 228.9 316.8 230.2L316.8 230.2L316.8 242.5ZM332.8 229.9L332.8 229.9L332.8 242.5L326.8 242.5L326.8 220.7L332.5 220.7L332.5 224.6L332.8 224.6Q333.5 222.7 335.2 221.6Q336.9 220.4 339.3 220.4L339.3 220.4Q341.6 220.4 343.3 221.4Q345.0 222.4 345.9 224.3Q346.9 226.1 346.9 228.7L346.9 228.7L346.9 242.5L340.8 242.5L340.8 229.7Q340.8 227.7 339.8 226.6Q338.8 225.5 336.9 225.5L336.9 225.5Q335.7 225.5 334.8 226.0Q333.9 226.5 333.3 227.5Q332.8 228.5 332.8 229.9ZM357.4 242.5L351.3 242.5L351.3 220.7L357.4 220.7L357.4 242.5ZM354.4 217.9L354.4 217.9Q353.0 217.9 352.0 217.0Q351.1 216.1 351.1 214.8L351.1 214.8Q351.1 213.6 352.0 212.7Q353.0 211.8 354.4 211.8L354.4 211.8Q355.7 211.8 356.7 212.7Q357.6 213.6 357.6 214.8L357.6 214.8Q357.6 216.1 356.7 217.0Q355.7 217.9 354.4 217.9ZM367.9 229.9L367.9 229.9L367.9 242.5L361.9 242.5L361.9 220.7L367.6 220.7L367.6 224.6L367.9 224.6Q368.6 222.7 370.3 221.6Q372.0 220.4 374.5 220.4L374.5 220.4Q376.7 220.4 378.4 221.4Q380.1 222.4 381.0 224.3Q382.0 226.1 382.0 228.7L382.0 228.7L382.0 242.5L375.9 242.5L375.9 229.7Q375.9 227.7 374.9 226.6Q373.9 225.5 372.1 225.5L372.1 225.5Q370.8 225.5 369.9 226.0Q369.0 226.5 368.5 227.5Q367.9 228.5 367.9 229.9ZM396.3 251.2L396.3 251.2Q393.3 251.2 391.2 250.4Q389.1 249.6 387.9 248.2Q386.7 246.8 386.3 245.1L386.3 245.1L391.9 244.3Q392.1 245.0 392.7 245.6Q393.2 246.1 394.2 246.5Q395.1 246.8 396.4 246.8L396.4 246.8Q398.4 246.8 399.7 245.9Q400.9 244.9 400.9 242.7L400.9 242.7L400.9 238.7L400.7 238.7Q400.3 239.6 399.5 240.4Q398.7 241.2 397.4 241.7Q396.2 242.2 394.5 242.2L394.5 242.2Q392.0 242.2 390.0 241.1Q388.0 239.9 386.8 237.6Q385.6 235.2 385.6 231.6L385.6 231.6Q385.6 227.9 386.8 225.4Q388.0 222.9 390.0 221.7Q392.0 220.4 394.5 220.4L394.5 220.4Q396.3 220.4 397.5 221.1Q398.8 221.7 399.5 222.6Q400.3 223.5 400.7 224.4L400.7 224.4L400.9 224.4L400.9 220.7L406.9 220.7L406.9 242.8Q406.9 245.5 405.6 247.4Q404.2 249.3 401.8 250.2Q399.4 251.2 396.3 251.2ZM396.4 237.7L396.4 237.7Q397.8 237.7 398.9 237.0Q399.9 236.2 400.4 234.9Q401.0 233.5 401.0 231.6L401.0 231.6Q401.0 229.6 400.4 228.2Q399.9 226.8 398.9 226.0Q397.8 225.3 396.4 225.3L396.4 225.3Q394.9 225.3 393.9 226.1Q392.8 226.9 392.3 228.3Q391.8 229.7 391.8 231.6L391.8 231.6Q391.8 233.5 392.3 234.8Q392.9 236.2 393.9 236.9Q394.9 237.7 396.4 237.7ZM415.0 242.9L415.0 242.9Q413.6 242.9 412.6 241.9Q411.6 240.9 411.6 239.5L411.6 239.5Q411.6 238.1 412.6 237.1Q413.6 236.1 415.0 236.1L415.0 236.1Q416.3 236.1 417.4 237.1Q418.4 238.1 418.4 239.5L418.4 239.5Q418.4 240.4 417.9 241.2Q417.4 242.0 416.7 242.5Q415.9 242.9 415.0 242.9Z M451.7 242.5L432.1 242.5L432.1 213.5L451.7 213.5L451.7 218.5L438.2 218.5L438.2 225.5L450.7 225.5L450.7 230.5L438.2 230.5L438.2 237.5L451.7 237.5L451.7 242.5ZM462.4 243.0L462.4 243.0Q460.3 243.0 458.7 242.2Q457.0 241.5 456.1 240.1Q455.1 238.6 455.1 236.5L455.1 236.5Q455.1 234.6 455.8 233.4Q456.5 232.2 457.6 231.4Q458.8 230.7 460.2 230.3Q461.7 229.9 463.3 229.7L463.3 229.7Q465.2 229.5 466.4 229.4Q467.6 229.2 468.1 228.8Q468.6 228.5 468.6 227.8L468.6 227.8L468.6 227.7Q468.6 226.3 467.8 225.6Q466.9 224.9 465.4 224.9L465.4 224.9Q463.7 224.9 462.8 225.6Q461.8 226.3 461.5 227.4L461.5 227.4L455.9 226.9Q456.3 224.9 457.6 223.5Q458.8 222.0 460.8 221.2Q462.8 220.4 465.4 220.4L465.4 220.4Q467.2 220.4 468.9 220.9Q470.6 221.3 471.9 222.2Q473.2 223.1 473.9 224.5Q474.7 225.9 474.7 227.8L474.7 227.8L474.7 242.5L468.9 242.5L468.9 239.5L468.8 239.5Q468.2 240.5 467.3 241.3Q466.5 242.1 465.2 242.5Q464.0 243.0 462.4 243.0ZM464.1 238.8L464.1 238.8Q465.4 238.8 466.5 238.2Q467.5 237.7 468.1 236.8Q468.7 235.9 468.7 234.7L468.7 234.7L468.7 232.4Q468.4 232.6 467.9 232.8Q467.4 232.9 466.8 233.0Q466.2 233.2 465.6 233.2Q464.9 233.3 464.4 233.4L464.4 233.4Q463.4 233.6 462.6 233.9Q461.8 234.3 461.4 234.8Q460.9 235.4 460.9 236.3L460.9 236.3Q460.9 237.5 461.8 238.1Q462.7 238.8 464.1 238.8ZM497.2 226.9L497.2 226.9L491.7 227.3Q491.5 226.6 491.0 226.0Q490.6 225.4 489.8 225.1Q489.1 224.7 488.0 224.7L488.0 224.7Q486.6 224.7 485.6 225.3Q484.7 225.9 484.7 226.9L484.7 226.9Q484.7 227.7 485.3 228.2Q485.9 228.8 487.4 229.1L487.4 229.1L491.4 229.9Q494.6 230.5 496.1 232.0Q497.7 233.4 497.7 235.8L497.7 235.8Q497.7 237.9 496.4 239.5Q495.2 241.2 493.0 242.1Q490.8 243.0 488.0 243.0L488.0 243.0Q483.6 243.0 481.1 241.2Q478.5 239.3 478.1 236.2L478.1 236.2L484.0 235.9Q484.3 237.2 485.3 237.9Q486.4 238.6 488.0 238.6L488.0 238.6Q489.6 238.6 490.6 238.0Q491.5 237.4 491.5 236.4L491.5 236.4Q491.5 235.6 490.8 235.0Q490.2 234.5 488.7 234.2L488.7 234.2L485.0 233.5Q481.8 232.8 480.2 231.3Q478.7 229.7 478.7 227.2L478.7 227.2Q478.7 225.1 479.8 223.6Q480.9 222.1 483.0 221.3Q485.1 220.4 487.9 220.4L487.9 220.4Q492.0 220.4 494.4 222.2Q496.8 223.9 497.2 226.9ZM507.2 242.5L501.2 242.5L501.2 220.7L507.2 220.7L507.2 242.5ZM504.2 217.9L504.2 217.9Q502.9 217.9 501.9 217.0Q501.0 216.1 501.0 214.8L501.0 214.8Q501.0 213.6 501.9 212.7Q502.9 211.8 504.2 211.8L504.2 211.8Q505.6 211.8 506.5 212.7Q507.5 213.6 507.5 214.8L507.5 214.8Q507.5 216.1 506.5 217.0Q505.6 217.9 504.2 217.9ZM521.7 243.0L521.7 243.0Q518.3 243.0 515.9 241.6Q513.5 240.2 512.2 237.7Q510.9 235.2 510.9 231.7L510.9 231.7Q510.9 228.4 512.2 225.8Q513.5 223.3 515.9 221.9Q518.2 220.4 521.5 220.4L521.5 220.4Q523.6 220.4 525.5 221.1Q527.4 221.8 528.8 223.2Q530.2 224.6 530.9 226.7Q531.7 228.7 531.7 231.5L531.7 231.5L531.7 233.2L513.3 233.2L513.3 229.4L526.0 229.4Q526.0 228.1 525.4 227.1Q524.9 226.1 523.9 225.5Q522.9 225.0 521.6 225.0L521.6 225.0Q520.2 225.0 519.1 225.6Q518.1 226.2 517.5 227.3Q516.9 228.3 516.9 229.6L516.9 229.6L516.9 233.2Q516.9 234.8 517.5 236.0Q518.1 237.2 519.2 237.8Q520.3 238.5 521.8 238.5L521.8 238.5Q522.8 238.5 523.6 238.2Q524.5 237.9 525.1 237.3Q525.7 236.8 526.0 235.9L526.0 235.9L531.6 236.3Q531.2 238.3 529.8 239.8Q528.5 241.3 526.5 242.1Q524.4 243.0 521.7 243.0ZM541.4 242.5L535.3 242.5L535.3 220.7L541.2 220.7L541.2 224.5L541.4 224.5Q542.0 222.5 543.4 221.5Q544.8 220.4 546.7 220.4L546.7 220.4Q547.1 220.4 547.7 220.5Q548.2 220.5 548.6 220.6L548.6 220.6L548.6 226.0Q548.2 225.9 547.4 225.8Q546.6 225.7 546.0 225.7L546.0 225.7Q544.7 225.7 543.6 226.2Q542.6 226.8 542.0 227.8Q541.4 228.9 541.4 230.2L541.4 230.2L541.4 242.5ZM552.4 242.9L552.4 242.9Q551.0 242.9 550.0 241.9Q549.0 240.9 549.0 239.5L549.0 239.5Q549.0 238.1 550.0 237.1Q551.0 236.1 552.4 236.1L552.4 236.1Q553.8 236.1 554.8 237.1Q555.8 238.1 555.8 239.5L555.8 239.5Q555.8 240.4 555.3 241.2Q554.9 242.0 554.1 242.5Q553.3 242.9 552.4 242.9Z "/></svg>