<svg width="16" height="16" viewBox="0 0 16 16" fill="none" xmlns="http://www.w3.org/2000/svg">
<g clip-path="url(#clip0_2_140)">
<g filter="url(#filter0_d_2_140)">
<path d="M3.4725 8.66667H10.9192L7.66583 11.92C7.40583 12.18 7.40583 12.6067 7.66583 12.8667C7.92583 13.1267 8.34583 13.1267 8.60583 12.8667L12.9992 8.47334C13.2592 8.21334 13.2592 7.79334 12.9992 7.53334L8.6125 3.13334C8.3525 2.87334 7.9325 2.87334 7.6725 3.13334C7.4125 3.39334 7.4125 3.81334 7.6725 4.07334L10.9192 7.33334H3.4725C3.10583 7.33334 2.80583 7.63334 2.80583 8C2.80583 8.36667 3.10583 8.66667 3.4725 8.66667Z" fill="#DD8500"/>
</g>
</g>
<defs>
<filter id="filter0_d_2_140" x="-1.19417" y="2.93834" width="18.3883" height="18.1233" filterUnits="userSpaceOnUse" color-interpolation-filters="sRGB">
<feFlood flood-opacity="0" result="BackgroundImageFix"/>
<feColorMatrix in="SourceAlpha" type="matrix" values="0 0 0 0 0 0 0 0 0 0 0 0 0 0 0 0 0 0 127 0" result="hardAlpha"/>
<feOffset dy="4"/>
<feGaussianBlur stdDeviation="2"/>
<feComposite in2="hardAlpha" operator="out"/>
<feColorMatrix type="matrix" values="0 0 0 0 0 0 0 0 0 0 0 0 0 0 0 0 0 0 0.15 0"/>
<feBlend mode="normal" in2="BackgroundImageFix" result="effect1_dropShadow_2_140"/>
<feBlend mode="normal" in="SourceGraphic" in2="effect1_dropShadow_2_140" result="shape"/>
</filter>
<clipPath id="clip0_2_140">
<rect width="16" height="16" fill="white"/>
</clipPath>
</defs>
</svg>
