<svg xmlns="http://www.w3.org/2000/svg" version="1.1" xmlns:xlink="http://www.w3.org/1999/xlink" xmlns:svgjs="http://svgjs.dev/svgjs" width="1500" height="530" viewBox="0 0 1500 530"><g transform="matrix(1,0,0,1,-0.9090909090909918,-0.5396807763769402)"><svg viewBox="0 0 396 140" data-background-color="#efefef" preserveAspectRatio="xMidYMid meet" height="530" width="1500" xmlns="http://www.w3.org/2000/svg" xmlns:xlink="http://www.w3.org/1999/xlink"><g id="tight-bounds" transform="matrix(1,0,0,1,0.2400000000000091,0.1425571862127697)"><svg viewBox="0 0 395.52 139.7148856275745" height="139.7148856275745" width="395.52"><g><svg viewBox="0 0 643.2233901791767 227.21450847457623" height="139.7148856275745" width="395.52"><g transform="matrix(1,0,0,1,247.70339017917672,70.21258111380143)"><svg viewBox="0 0 395.52 86.78934624697335" height="86.78934624697335" width="395.52"><g id="textblocktransform"><svg viewBox="0 0 395.52 86.78934624697335" height="86.78934624697335" width="395.52" id="textblock"><g><svg viewBox="0 0 395.52 86.78934624697335" height="86.78934624697335" width="395.52"><g transform="matrix(1,0,0,1,0,0)"><svg width="395.52" viewBox="2.2 -25.45 165.19 36.25" height="86.78934624697335" data-palette-color="#adadad"><path d="M13.1-25.45L13.1-25.45Q15.2-25.45 17.15-24.65 19.1-23.85 20.45-22.2L20.45-22.2 21.35-24.85 23.85-24.85Q23.8-24 23.75-23.13 23.7-22.25 23.7-21.4L23.7-21.4 23.7 7.85Q23.7 7.9 23.85 8.58 24 9.25 24.18 9.95 24.35 10.65 24.35 10.8L24.35 10.8 19.55 10.8 19.55 1.4Q19.55 0.8 19.58 0.18 19.6-0.45 19.63-1.05 19.65-1.65 19.7-2.25L19.7-2.25Q18.15-0.8 16.45-0.1 14.75 0.6 12.55 0.6L12.55 0.6Q9.95 0.6 8-0.53 6.05-1.65 4.78-3.53 3.5-5.4 2.85-7.68 2.2-9.95 2.2-12.25L2.2-12.25Q2.2-15.65 3.38-18.65 4.55-21.65 6.98-23.55 9.4-25.45 13.1-25.45ZM13.3-22.3L13.3-22.3Q11.45-22.3 10.15-21.33 8.85-20.35 8.1-18.85 7.35-17.35 7-15.63 6.65-13.9 6.65-12.4L6.65-12.4Q6.65-10.75 7.03-9.1 7.4-7.45 8.22-6.08 9.05-4.7 10.38-3.85 11.7-3 13.6-3L13.6-3Q15.2-3 16.85-3.75 18.5-4.5 19.55-5.75L19.55-5.75 19.55-14.8Q19.55-16.9 18.95-18.6 18.35-20.3 16.98-21.3 15.6-22.3 13.3-22.3ZM40.45-25.45L40.45-25.45Q44.4-25.45 46.4-23.3 48.4-21.15 48.4-17.25L48.4-17.25 48.4-4.8Q48.4-3.75 48.8-3.38 49.2-3 49.75-3L49.75-3Q50.2-3 50.7-3.13 51.2-3.25 51.65-3.45L51.65-3.45 52.55-0.75Q51.75-0.3 50.52 0.08 49.3 0.45 48 0.45L48 0.45Q46.7 0.45 45.65-0.28 44.6-1 44.35-2.95L44.35-2.95Q42.9-1.4 40.95-0.43 39 0.55 36.85 0.55L36.85 0.55Q33.9 0.55 31.95-1.2 30-2.95 30-6L30-6Q30-8.85 31.37-10.55 32.75-12.25 34.95-13.1 37.15-13.95 39.62-14.25 42.1-14.55 44.25-14.55L44.25-14.55 44.25-17.2Q44.25-19.3 43.4-20.75 42.55-22.2 40.1-22.2L40.1-22.2Q38.2-22.2 36.45-21.45 34.7-20.7 32.95-19.25L32.95-19.25 30.9-22.2Q32.95-23.85 35.4-24.65 37.85-25.45 40.45-25.45ZM44.25-9.7L44.25-11.3Q42.9-11.3 41.2-11.18 39.5-11.05 37.9-10.58 36.3-10.1 35.27-9.05 34.25-8 34.25-6.15L34.25-6.15Q34.25-4.5 35.37-3.73 36.5-2.95 38.2-2.95L38.2-2.95Q40-2.95 41.35-3.95 42.7-4.95 43.47-6.5 44.25-8.05 44.25-9.7L44.25-9.7ZM54.9-24.7L59.45-25.2Q59.8-24.4 60.05-23.5 60.3-22.6 60.4-21.75L60.4-21.75Q61.75-23.05 63.7-24.25 65.65-25.45 67.65-25.45L67.65-25.45Q70.05-25.45 71.75-24.48 73.45-23.5 74.5-21.3L74.5-21.3Q76-22.8 78.05-24.13 80.09-25.45 82.25-25.45L82.25-25.45Q85-25.45 86.67-24.3 88.34-23.15 89.09-21.18 89.84-19.2 89.84-16.6L89.84-16.6 89.84 0 85.7 0 85.7-15.25Q85.7-16.75 85.47-18.25 85.25-19.75 84.37-20.75 83.5-21.75 81.55-21.75L81.55-21.75Q79.8-21.75 78.09-20.63 76.4-19.5 75.25-18.35L75.25-18.35 75.25 0 71.09 0 71.09-15.25Q71.09-16.8 70.87-18.28 70.65-19.75 69.77-20.75 68.9-21.75 66.95-21.75L66.95-21.75Q65.84-21.75 64.7-21.23 63.55-20.7 62.5-19.93 61.45-19.15 60.65-18.45L60.65-18.45 60.65 0 56.5 0 56.5-18.05Q56.5-19.1 56.32-20.3 56.15-21.5 55.8-22.65 55.45-23.8 54.9-24.7L54.9-24.7ZM107.19 0.65L107.19 0.65Q103.54 0.65 101.07-1.18 98.59-3 97.37-5.95 96.14-8.9 96.14-12.25L96.14-12.25Q96.14-15.6 97.47-18.63 98.79-21.65 101.34-23.55 103.89-25.45 107.49-25.45L107.49-25.45Q111.19-25.45 113.67-23.65 116.14-21.85 117.37-18.9 118.59-15.95 118.59-12.55L118.59-12.55Q118.59-9.15 117.29-6.13 115.99-3.1 113.44-1.23 110.89 0.65 107.19 0.65ZM107.24-2.5L107.24-2.5Q109.19-2.5 110.52-3.43 111.84-4.35 112.67-5.85 113.49-7.35 113.84-9.08 114.19-10.8 114.19-12.4L114.19-12.4Q114.19-14.05 113.87-15.78 113.54-17.5 112.79-18.98 112.04-20.45 110.72-21.38 109.39-22.3 107.44-22.3L107.44-22.3Q105.49-22.3 104.17-21.38 102.84-20.45 102.04-18.95 101.24-17.45 100.89-15.73 100.54-14 100.54-12.4L100.54-12.4Q100.54-10.85 100.89-9.13 101.24-7.4 102.02-5.9 102.79-4.4 104.09-3.45 105.39-2.5 107.24-2.5ZM124.14-24.85L128.94-24.85 128.94-9.55Q128.94-8.1 129.19-6.58 129.44-5.05 130.32-4.05 131.19-3.05 133.09-3.05L133.09-3.05Q134.94-3.05 136.47-3.85 137.99-4.65 138.94-6.08 139.89-7.5 139.89-9.4L139.89-9.4 139.89-21.9Q139.89-21.95 139.74-22.63 139.59-23.3 139.44-24.03 139.29-24.75 139.24-24.85L139.24-24.85 144.04-24.85 144.04-4.85Q144.04-3.9 144.37-3.45 144.69-3 145.39-3L145.39-3Q146.09-3 147.29-3.45L147.29-3.45 148.19-0.75Q147.19-0.2 145.97 0.13 144.74 0.45 143.64 0.45L143.64 0.45Q142.34 0.45 141.34-0.3 140.34-1.05 140.04-2.95L140.04-2.95Q138.59-1.45 136.57-0.4 134.54 0.65 132.39 0.65L132.39 0.65Q129.64 0.65 127.97-0.5 126.29-1.65 125.54-3.63 124.79-5.6 124.79-8.2L124.79-8.2 124.79-21.9 124.14-24.85ZM160.64-25.45L160.64-25.45Q162.34-25.45 164.01-25.03 165.69-24.6 167.09-23.7L167.09-23.7 165.64-20.5Q164.54-21.4 163.19-21.85 161.84-22.3 160.54-22.3L160.54-22.3Q158.69-22.3 157.31-21.45 155.94-20.6 155.94-18.9L155.94-18.9Q155.94-17.05 157.16-16.15 158.39-15.25 160.09-14.45L160.09-14.45Q161.34-13.85 162.61-13.23 163.89-12.6 164.96-11.73 166.04-10.85 166.71-9.63 167.39-8.4 167.39-6.6L167.39-6.6Q167.39-4.1 166.16-2.48 164.94-0.85 162.96-0.1 160.99 0.65 158.69 0.65L158.69 0.65Q156.69 0.65 154.69 0.1 152.69-0.45 150.99-1.45L150.99-1.45 152.74-4.5Q153.94-3.6 155.44-3.05 156.94-2.5 158.34-2.5L158.34-2.5Q160.24-2.5 161.66-3.4 163.09-4.3 163.09-6.1L163.09-6.1Q163.09-7.35 162.31-8.18 161.54-9 160.34-9.65 159.14-10.3 157.84-10.9L157.84-10.9Q156.34-11.65 154.91-12.53 153.49-13.4 152.59-14.75 151.69-16.1 151.69-18.2L151.69-18.2Q151.69-20.6 152.96-22.2 154.24-23.8 156.29-24.63 158.34-25.45 160.64-25.45Z" opacity="1" transform="matrix(1,0,0,1,0,0)" fill="#adadad" class="wordmark-text-0" data-fill-palette-color="primary" id="text-0"></path></svg></g></svg></g></svg></g></svg></g><g><svg viewBox="0 0 227.21450847457623 227.21450847457623" height="227.21450847457623" width="227.21450847457623"><g><svg xmlns="http://www.w3.org/2000/svg" xmlns:xlink="http://www.w3.org/1999/xlink" version="1.1" x="0" y="0" viewBox="5 5 90 90" style="enable-background:new 0 0 100 100;" xml:space="preserve" height="227.21450847457623" width="227.21450847457623" class="icon-icon-0" data-fill-palette-color="accent" id="icon-0"><g fill="#dd8500" data-fill-palette-color="accent"><path d="M84 5H16C9.9 5 5 9.6 5 15.3V67c0 5.7 4.9 10.3 11 10.3h7.2v15.3c0 0.9 0.6 1.8 1.5 2.2 0.4 0.2 0.7 0.2 1.1 0.2 0.6 0 1.2-0.2 1.7-0.5l22.7-17.2H84c6.1 0 11-4.6 11-10.3V15.3C95 9.6 90.1 5 84 5zM89.9 66.9c0 3-2.6 5.4-5.8 5.4H49.2c-0.6 0-1.2 0.2-1.7 0.5L28.4 87.3V74.7c0-1.3-1.2-2.4-2.6-2.4h-9.8c-3.2 0-5.8-2.4-5.8-5.4V15.5c0-3 2.6-5.4 5.8-5.4h68.2c3.2 0 5.8 2.4 5.8 5.4V66.9z" fill="#dd8500" data-fill-palette-color="accent"></path><path d="M32.1 26.3L21.6 55.5H28l2-6h10.8l1.9 6h6.6L39 26.3H32.1zM31.7 44.5L35.5 33l3.7 11.5H31.7z" fill="#dd8500" data-fill-palette-color="accent"></path><path d="M75.8 53.1c-0.1-0.5-0.2-1.4-0.2-2.7v-2c0-2-0.3-3.6-0.8-4.6-0.6-1-1.5-1.8-2.9-2.3 1.6-0.6 2.8-1.5 3.5-2.8 0.7-1.3 1-2.7 1-4.1 0-1.1-0.2-2.2-0.5-3.1s-0.9-1.7-1.5-2.5c-0.7-0.9-1.7-1.6-2.7-2-1.1-0.5-2.6-0.7-4.6-0.8h-14v29.2h6V44h6c1.7 0 2.9 0.3 3.5 0.9 0.6 0.6 0.9 1.9 1 3.7l0 2.7c0 0.9 0.1 1.7 0.3 2.5 0.1 0.4 0.2 0.9 0.4 1.6h6.7v-0.7C76.3 54.4 76 53.8 75.8 53.1zM68.6 38.7c-0.7 0.3-1.6 0.5-2.9 0.5h-6.6v-7.8h6.7c1.3 0 2.2 0.2 2.8 0.5 1.1 0.6 1.7 1.8 1.7 3.6C70.3 37.1 69.8 38.2 68.6 38.7z" fill="#dd8500" data-fill-palette-color="accent"></path></g></svg></g></svg></g></svg></g><defs></defs></svg><rect width="395.52" height="139.7148856275745" fill="none" stroke="none" visibility="hidden"></rect></g></svg></g></svg>